<?xml version="1.0" standalone="no"?>
<!DOCTYPE svg PUBLIC "-//W3C//DTD SVG 20010904//EN"
 "http://www.w3.org/TR/2001/REC-SVG-20010904/DTD/svg10.dtd">
<svg version="1.0" xmlns="http://www.w3.org/2000/svg"
 width="200.000000pt" height="90.000000pt" viewBox="0 0 200.000000 90.000000"
 preserveAspectRatio="xMidYMid meet">
<metadata>
Created by potrace 1.10, written by Peter Selinger 2001-2011
</metadata>
<g transform="translate(0.000000,90.000000) scale(0.100000,-0.100000)"
fill="#000000" stroke="none">
<path d="M1190 788 c-6 -24 -15 -56 -20 -72 -6 -15 -7 -32 -5 -36 11 -18 -23
-22 -215 -20 -142 0 -205 -3 -219 -12 -17 -10 -26 -6 -73 34 l-55 47 -158 -40
c-87 -22 -164 -43 -169 -47 -6 -3 -17 -7 -26 -7 -25 -3 -84 -17 -95 -23 -5 -3
-16 -7 -25 -7 -8 -1 -39 -7 -69 -15 l-54 -13 7 -75 c8 -96 22 -114 86 -110
l45 3 -3 -41 c-3 -32 2 -47 23 -72 38 -45 74 -43 113 6 16 20 30 41 31 46 0 5
28 10 62 10 56 1 62 -1 77 -27 9 -15 25 -27 35 -27 18 0 67 42 67 57 0 4 68 8
152 7 120 -1 153 -4 157 -15 2 -7 14 -21 25 -32 55 -47 138 -53 192 -12 20 16
33 33 30 41 -3 7 -1 16 4 19 6 3 121 6 256 6 l247 0 17 -29 c10 -16 30 -38 45
-50 52 -41 129 1 169 93 3 6 11 2 19 -7 13 -16 15 -15 35 12 27 36 27 46 3 86
-13 21 -16 35 -9 42 5 5 8 22 6 38 -4 39 -85 95 -136 94 -36 -1 -96 5 -137 15
-12 2 -58 43 -104 90 l-83 85 -119 0 -118 0 -11 -42z m322 -66 c92 -91 104
-97 188 -106 93 -9 107 -12 141 -37 28 -20 30 -26 27 -70 -2 -34 1 -50 10 -54
17 -6 12 -60 -5 -61 -7 -1 -21 -2 -32 -3 -11 0 -26 -16 -35 -36 -17 -35 -60
-65 -94 -65 -15 0 -49 33 -82 80 -18 25 -61 30 -265 30 -174 0 -222 -3 -245
-15 -17 -9 -30 -20 -30 -25 0 -6 -7 -10 -16 -10 -8 0 -13 -4 -10 -8 3 -5 -2
-18 -10 -30 -29 -42 -117 -25 -171 33 -26 28 -39 35 -70 35 -36 0 -40 3 -52
36 -13 35 -14 36 -54 30 -23 -3 -64 -8 -91 -11 -62 -8 -63 -9 -71 -44 -3 -16
-18 -41 -32 -56 l-26 -26 -28 31 c-25 27 -34 30 -89 30 -60 0 -60 0 -92 -45
-52 -73 -108 -58 -108 29 0 42 -26 63 -79 64 -18 0 -35 3 -37 5 -3 2 -7 33
-11 69 l-6 65 49 12 c27 6 58 13 69 15 11 1 27 6 35 9 21 8 79 24 195 53 55
13 114 28 130 33 76 23 90 23 115 -4 47 -50 68 -54 302 -52 l218 2 23 25 c12
14 21 33 19 42 -2 9 2 27 9 40 7 13 14 28 15 33 0 6 2 15 2 22 3 16 21 18 126
15 l91 -4 77 -76z m-772 -311 c17 -32 12 -36 -45 -38 -30 -1 -55 1 -55 4 0 4
10 17 22 30 26 28 64 30 78 4z m-100 1 c0 -13 -12 -22 -22 -16 -10 6 -1 24 13
24 5 0 9 -4 9 -8z m-46 -18 c9 -23 8 -24 -14 -24 -19 0 -27 20 -13 33 11 11
20 8 27 -9z"/>
</g>
</svg>
